<?xml version="1.0" standalone="no"?>
<!DOCTYPE svg PUBLIC "-//W3C//DTD SVG 1.1//EN" "http://www.w3.org/Graphics/SVG/1.1/DTD/svg11.dtd" >
<svg xmlns="http://www.w3.org/2000/svg">
<metadata>
Created by FontForge 20120731 at Fri Jul 28 14:07:34 2017
 By admin
</metadata>
<defs>
<font id="iconfont" horiz-adv-x="1024" >
  <font-face 
    font-family="iconfont"
    font-weight="500"
    font-stretch="normal"
    units-per-em="1024"
    panose-1="2 0 6 3 0 0 0 0 0 0"
    ascent="896"
    descent="-128"
    x-height="792"
    bbox="0 -212 1355 896.007"
    underline-thickness="0"
    underline-position="0"
    unicode-range="U+0078-E7DF"
  />
<missing-glyph 
 />
    <glyph glyph-name=".notdef" 
 />
    <glyph glyph-name=".notdef" 
 />
    <glyph glyph-name=".null" horiz-adv-x="0" 
 />
    <glyph glyph-name="nonmarkingreturn" horiz-adv-x="341" 
 />
    <glyph glyph-name="x" unicode="x" horiz-adv-x="1001" 
d="M281 543q-27 -1 -53 -1h-83q-18 0 -36.5 -6t-32.5 -18.5t-23 -32t-9 -45.5v-76h912v41q0 16 -0.5 30t-0.5 18q0 13 -5 29t-17 29.5t-31.5 22.5t-49.5 9h-133v-97h-438v97zM955 310v-52q0 -23 0.5 -52t0.5 -58t-10.5 -47.5t-26 -30t-33 -16t-31.5 -4.5q-14 -1 -29.5 -0.5
t-29.5 0.5h-32l-45 128h-439l-44 -128h-29h-34q-20 0 -45 1q-25 0 -41 9.5t-25.5 23t-13.5 29.5t-4 30v167h911zM163 247q-12 0 -21 -8.5t-9 -21.5t9 -21.5t21 -8.5q13 0 22 8.5t9 21.5t-9 21.5t-22 8.5zM316 123q-8 -26 -14 -48q-5 -19 -10.5 -37t-7.5 -25t-3 -15t1 -14.5
t9.5 -10.5t21.5 -4h37h67h81h80h64h36q23 0 34 12t2 38q-5 13 -9.5 30.5t-9.5 34.5q-5 19 -11 39h-368zM336 498v228q0 11 2.5 23t10 21.5t20.5 15.5t34 6h188q31 0 51.5 -14.5t20.5 -52.5v-227h-327z" />
    <glyph glyph-name="tell" unicode="&#xe604;" 
d="M605 813q-3 0 -6 1q-15 0 -26.5 -9t-14.5 -24q-4 -16 5.5 -30t25.5 -17q64 -13 117 -49t89 -91q74 -112 47 -244q-4 -16 5.5 -30t25.5 -17q3 -1 7 -1q12 -1 23 6q14 10 18 26q22 108 -12.5 210t-115 174.5t-188.5 94.5v0zM675 207q57 -37 96 -77q41 -43 41 -74
q-1 -31 -37 -64q-8 -8 -21 -18t-49 -24t-74 -14q-35 0 -71 11q-38 12 -76 35q-75 44 -135 103t-114 143q-44 66 -73 134t-39.5 121t-13.5 81.5t-3 48.5q0 40 13 75t29.5 56t38 39t32.5 24t19 10q28 12 50 12q11 0 21 -3q28 -8 43 -40q26 -57 43 -141q2 -12 2 -22t-1.5 -17
t-6 -13.5t-8.5 -11t-11.5 -9t-12 -7t-12.5 -6.5l-1 -1q-54 -22 -63 -26q-7 -3 -10.5 -10t-0.5 -14q33 -100 95 -196q61 -94 138 -165q5 -5 13 -5h1q9 1 14 7q17 23 34 38q37 36 69 36q8 0 16.5 -2.5t24.5 -13.5v0zM505 482q-16 4 -25 18t-6 30q3 15 14.5 24t26.5 8q3 0 7 -1
q70 -14 109.5 -74t24.5 -130q-3 -17 -17 -26q-11 -7 -24 -7q-3 1 -6 1q-17 4 -26 17.5t-6 30.5q8 37 -13 69.5t-59 39.5v0zM547 609q-16 3 -25 17t-6 30q3 15 14.5 24t26.5 8h7q117 -25 183 -125t42 -218q-3 -16 -17 -25q-11 -8 -24 -7q-3 0 -7 1q-16 3 -25 17t-6 30
q18 85 -30 157.5t-133 90.5z" />
    <glyph glyph-name="email" unicode="&#xe694;" horiz-adv-x="1357" 
d="M683 304l564 527h-1128zM68 -24q0 -17 11.5 -28.5t27.5 -11.5h1155q16 0 27.5 11.5t11.5 28.5v811l-361 -337l282 -382l-350 319l-189 -177l-193 180l-352 -322l284 386l-354 330v-808z" />
    <glyph glyph-name="QQ" unicode="&#xe607;" 
d="M971 143l-2 18l-3 17l-3 9l-2 9l-3 9l-4 10l-3 10l-4 9l-8 16l-6 14l-7 13l-5 11l-7 11l-5 9l-10 15l-12 19l-3 5l-1 2v1l2 7l3 6l2 11l2 6v6v5v5v6l-1 4l-2 10l-2 9l-3 8l-3 8l-4 7l-3 7l-3 6l-6 9l-2 3v2l-3 18l-1 11l-2 14l-3 15l-4 17l-3 9l-2 8l-3 9l-3 10l-3 9
l-4 10l-8 19l-5 9l-6 10l-5 9l-6 10l-7 10l-7 8l-8 10l-8 8l-8 8l-9 9l-5 3l-5 4l-11 7l-12 8l-12 7l-13 7l-13 6l-13 6l-14 4l-15 4l-13 4l-15 3l-13 4l-15 1l-14 2l-15 2h-15h-14h-14l-14 -1l-14 -2l-14 -2l-13 -2l-14 -3l-13 -3l-13 -4l-12 -4l-12 -4l-12 -6l-12 -5
l-10 -6l-10 -6l-10 -7l-10 -8l-8 -7l-12 -12l-10 -10l-10 -11l-9 -11l-9 -11l-7 -10l-7 -11l-4 -5l-3 -6l-7 -10l-5 -10l-5 -10l-4 -10l-4 -9l-3 -9l-3 -9l-4 -8l-4 -16l-3 -15l-1 -12l-2 -11v-8v-7v-6l-3 -3l-3 -4l-2 -4l-2 -4l-2 -9l-3 -9v-7l-1 -6v-6l-6 -8l-4 -9l-3 -8
l-2 -7l-2 -7l-2 -6v-6v-6v-5l1 -4l2 -7l1 -6l-3 -3l-9 -6l-12 -11l-7 -7l-7 -6l-5 -5l-4 -5l-9 -9l-8 -10l-7 -8l-8 -11l-7 -11l-7 -12l-7 -11l-5 -11l-5 -11l-4 -10l-4 -11l-3 -11l-3 -11l-3 -10l-2 -10l-1 -9l-2 -10l-1 -18v-17v-7l1 -7l2 -13l1 -6l2 -5l2 -6l1 -3l3 -7
l2 -2l2 -3h1h1h1h7l7 2l7 3l6 4l6 4l5 5l6 5l5 6l5 6l4 6l4 4l2 6l5 8l2 4l1 2v3l1 2h1l2 1h1v-1h1h1l3 -12l2 -10l4 -10l4 -9l4 -9l5 -8l4 -9l4 -7l5 -7l3 -6l10 -12l9 -11l8 -8l8 -7l7 -6l11 -10l4 -2l2 -2v-1l-1 -1h-1h-2l-8 -1l-7 -1l-6 -1l-7 -1l-5 -2l-6 -2l-5 -2
l-4 -3l-5 -1l-3 -3l-3 -2l-4 -3l-4 -5l-2 -3l-2 -2l-3 -6l-2 -5l-1 -5l-1 -4v-6v-3l-1 -4v-4l-1 -4v-3l1 -4l1 -4l2 -7l2 -3l2 -3l2 -3l3 -3l3 -3l2 -3l7 -5l8 -4l8 -5l9 -3l9 -4l11 -2l10 -4l11 -2l12 -2l11 -2l12 -1l24 -3h24h23h10h10h11l9 1l9 1l8 1l13 2l9 3l9 2l17 7
l8 3l7 3l12 7l10 6l8 5l6 5l9 -1l7 -1l14 -1h6h6l4 -1l4 -1l7 -3l8 -2l14 -5l15 -5l14 -4l14 -3l15 -4l15 -2l15 -2l14 -2l14 -1l15 -1h13h14h13l13 1l13 1l12 2l11 3l11 2l11 3l5 1l5 2l9 3l8 4l8 4l8 4l6 5l3 3l3 4l4 4l4 6l1 3l1 3l2 3l1 3v4l1 3l-1 5l-1 4l-2 5l-1 4
l-3 5l-3 5l-3 3l-4 4l-9 7l-10 8l-10 5l-10 6l-23 12l-6 3l-2 2l-1 1l12 11l5 6l4 5l8 12l7 11l6 11l6 10l8 20l7 16l4 12l2 4l2 3l2 2h1h1l6 -12l5 -12l4 -7l4 -5l4 -7l5 -7l4 -5l3 -2l2 -3l2 -1l3 -2l4 -2l3 -1h2h2l2 1l4 1l3 2l3 2l3 3l3 4l2 3l3 5l2 3l2 6l2 4l3 11
l2 12l2 14l1 8v6v7v9z" />
    <glyph glyph-name="qrcode" unicode="&#xe60c;" 
d="M102 814h348q10 -1 16 -7.5t8.5 -20.5t3 -23.5t-0.5 -29.5t-1 -25v-192q0 -8 1 -25.5t0.5 -27t-2 -22t-6 -20t-12.5 -11t-24 -4t-38.5 1t-27.5 1.5h-184q-7 0 -26 -1t-29 -0.5t-23.5 2.5t-20 8.5t-8.5 16.5v352q7 21 26 27zM150 735v-251h251v254h-250q-1 0 -1 -3z
M569 814h347q22 -8 27 -31v-343q-6 -25 -25 -30q-10 -3 -25 -3.5t-34.5 1t-27.5 1.5h-179q-7 0 -27.5 -1.5t-35.5 -1t-25 3.5q-9 2 -14.5 10t-7 22t-2 24t0.5 29t1 27v179q0 9 -1 29t-0.5 30.5t2.5 24t8.5 20.5t17.5 9zM616 735v-251h251v254h-250q-1 0 -1 -3zM264 661
q26 5 44.5 -9.5t18.5 -39.5q1 -31 -24.5 -46t-50.5 -1q-19 9 -25 31t4 41.5t33 23.5zM730 661q44 9 58 -29q12 -33 -10 -57q-17 -20 -48 -15q-24 4 -34 27t-0.5 46.5t34.5 27.5zM447 -64h-343q-22 6 -28 28v350q7 21 23 26q10 3 25 3t34.5 -1t27.5 -1h179q7 0 27 1.5t35.5 1
t25.5 -3.5q9 -3 15 -10.5t7.5 -21.5t2 -24t-0.5 -29t-1 -26v-185q0 -7 1 -27.5t0.5 -30t-3 -23t-9.5 -20t-18 -7.5zM150 262v-251h251v254h-250q-1 0 -1 -3zM943 310v-98q-2 -8 -1.5 -52.5t-0.5 -53.5h-248v57q-5 1 -37.5 1h-39.5q-1 -19 -1 -113.5v-114.5h-45q-11 2 -18 9
t-9 21t-2.5 24.5t0.5 30t1 28.5v180q0 8 -1.5 28.5t-1 36t3.5 25.5q2 5 4.5 9t8 6.5t9.5 4t12.5 2t13 0.5h15h14.5h169v-155h78q0 14 -0.5 78t1.5 77q19 1 35.5 0.5t27 -8.5t12.5 -23zM270 190q29 3 46.5 -20t7.5 -52q-10 -26 -37.5 -30.5t-48 14.5t-12.5 51.5t44 36.5z
M777 -64h-84v46t1 44h83v-90zM943 26v-59q-5 -24 -28 -31h-60v46t1 44h87z" />
    <glyph glyph-name="baidu1" unicode="&#xe7df;" 
d="M184 272q27 6 46 20t28.5 33.5t15 37.5t6 40.5t0 32.5t-2.5 23q-5 39 -43 80t-87 37q-25 -3 -45 -18.5t-30 -33.5t-17.5 -41t-8.5 -31.5t-2 -14.5v0q-2 -18 -0.5 -42t13 -48.5t27 -43.5t42.5 -28t58 -3zM303 41q-12 -32 -5 -54q4 -13 11 -23t13.5 -14.5t14 -7.5
t10.5 -3.5t4 -0.5v0h59v143h-63q-18 -6 -29.5 -18t-14.5 -22zM391 496q46 0 78.5 46t32.5 111.5t-32.5 112t-78.5 46.5t-78.5 -46.5t-32.5 -112t32.5 -111.5t78.5 -46zM656 485q38 -5 71 18t51 56.5t23 69.5q8 49 -24 97.5t-76 58.5q-42 10 -87.5 -40.5t-50.5 -99.5
q-4 -41 2 -73t29 -57t62 -30zM857 94q-14 11 -37 30.5t-77 73.5t-87 101q-36 56 -81 79.5t-85 16.5t-73.5 -29t-52.5 -54q-21 -35 -51 -67t-54.5 -53t-26.5 -23t-15 -12t-28 -22.5t-33.5 -33.5t-30 -44t-18 -54t2.5 -65q9 -40 27.5 -68.5t36 -41.5t39 -20t28.5 -7.5t12 -0.5
q83 -9 178 13q49 9 88 8t64 -8l25 -6q5 -1 13 -3.5t32.5 -7.5t47.5 -7t53 0t55 10.5t47.5 28t35.5 48.5q17 41 19 78.5t-5 60.5t-20 44t-19 26.5t-10 8.5v0zM476 -119h-144q-29 5 -51 20t-29.5 25t-10.5 17q-20 48 -11 100q7 25 21 43.5t26.5 27.5t27.5 15t20.5 7t8.5 1v0
h77v95l65 -2v-349zM746 -118h-167q-18 4 -31.5 12.5t-20 16.5t-10.5 16.5t-4.5 12t-0.5 4.5v184l67 2v-166q2 -8 8.5 -13t12.5 -6l5 -2h69v186h72v-247zM982 373q0 15 -6.5 34.5t-19 41.5t-39 37t-60.5 15q-111 0 -111 -154q0 -24 1.5 -39.5t8.5 -37.5t19.5 -35.5
t37.5 -22.5t60 -9q20 1 36 5.5t27 14t19.5 19t13 24t8 24.5t4.5 26t1 23v20.5v13.5z" />
    <glyph glyph-name="zaixkf" unicode="&#xe649;" 
d="M511 726q-98 0 -166.5 -67.5t-68.5 -162.5t68.5 -162.5t166 -67.5t166 67.5t68.5 162.5t-68.5 162.5t-165.5 67.5v0zM511 281q-92 0 -156 63t-64 152t64 152.5t155.5 63.5t156 -63.5t64.5 -152.5t-64.5 -152t-155.5 -63v0zM240 408v212h-9q37 79 112.5 128t167.5 49
t167.5 -49t111.5 -128h-9v-212q45 0 77 31t32 75q0 29 -15 54t-41 38q-35 100 -123.5 163t-199.5 63t-200 -63t-124 -163q-25 -13 -40.5 -38t-15.5 -54q0 -44 32 -75t77 -31v0v0v0zM745 286q-99 -90 -234 -90t-234 90q-85 -43 -133.5 -116.5t-48.5 -170.5h834
q0 97 -49 170.5t-135 116.5v0v0zM277 266q98 -80 233 -80t234 81q164 -73 164 -256h-792q0 183 161 255v0v0zM277 266z" />
    <glyph glyph-name="erweima1" unicode="&#xe61b;" 
d="M371 495h-280q-12 0 -20.5 8.5t-8.5 20.5v280q0 11 8.5 19.5t20.5 8.5h280q12 0 20.5 -8.5t8.5 -19.5v-280q0 -12 -8.5 -20.5t-20.5 -8.5zM119 552h223v223h-223v-223zM931 495h-280q-12 0 -20.5 8.5t-8.5 20.5v280q0 11 8.5 19.5t20.5 8.5h280q12 0 20.5 -8.5t8.5 -19.5
v-280q0 -12 -8.5 -20.5t-20.5 -8.5zM680 552h223v223h-223v-223zM855 11h-204q-12 0 -20.5 8.5t-8.5 19.5v205q0 11 8.5 19.5t20.5 8.5h204q12 0 20.5 -8.5t8.5 -19.5v-205q0 -11 -8.5 -19.5t-20.5 -8.5zM680 68h147v147h-147v-147zM371 -65h-280q-12 0 -20.5 8.5t-8.5 20.5
v280q0 11 8.5 19.5t20.5 8.5h280q12 0 20.5 -8.5t8.5 -19.5v-280q0 -12 -8.5 -20.5t-20.5 -8.5zM119 -8h223v223h-223v-223zM511 355h-278q-12 0 -20.5 8.5t-8.5 20t8.5 20t20.5 8.5h249v252q0 11 8.5 19.5t20.5 8.5t20.5 -8.5t8.5 -19.5v-280q0 -12 -8.5 -20.5t-20.5 -8.5z
M511 725q-12 0 -20.5 8.5t-8.5 20.5v50q0 11 8.5 19.5t20.5 8.5t20.5 -8.5t8.5 -19.5v-50q0 -12 -8.5 -20.5t-20.5 -8.5zM141 355h-50q-12 0 -20.5 8.5t-8.5 20t8.5 20t20.5 8.5h50q11 0 19.5 -8.5t8.5 -20t-8.5 -20t-19.5 -8.5zM931 355h-280q-12 0 -20.5 8.5t-8.5 20
t8.5 20t20.5 8.5h280q12 0 20.5 -8.5t8.5 -20t-8.5 -20t-20.5 -8.5zM511 -65q-12 0 -20.5 8.5t-8.5 20.5v280q0 11 8.5 19.5t20.5 8.5t20.5 -8.5t8.5 -19.5v-280q0 -12 -8.5 -20.5t-20.5 -8.5z" />
    <glyph glyph-name="weixin" unicode="&#xe63b;" 
d="M499 467q20 0 32 12t12 32t-12 32t-32 12q-21 0 -37 -12.5t-16 -31.5t16 -31.5t37 -12.5zM253 555q-21 0 -37 -12.5t-16 -31.5t16 -31.5t37 -12.5q20 0 32 12t12 32t-12 32t-32 12zM1024 186q0 104 -84 182t-203 87v6q-24 111 -130 185t-240 74q-99 0 -184 -42
t-134 -114.5t-49 -158.5q0 -142 138 -243l-32 -94q-3 -10 5 -17q4 -4 10 -4q4 0 8 2l117 59l15 -3q68 -14 106 -14q17 0 34 1q7 1 11 6q33 -81 114.5 -132t183.5 -51q37 0 103 17l91 -50q3 -2 7 -2q6 0 11 3q8 7 5 18l-23 77q120 95 120 208zM399 124q-16 -1 -32 -1
q-35 0 -100 13l-20 4q-5 1 -10 -1l-88 -45l23 69q3 12 -6 19q-134 93 -134 223q0 77 45 142t122 103t168 38q123 0 219.5 -66t118.5 -166q-129 -1 -219.5 -80t-90.5 -190q0 -31 9 -63q-3 1 -5 1zM875 -4q-8 -6 -5 -17l15 -50l-62 34q-4 2 -8 2q-2 0 -4 -1q-67 -17 -101 -17
q-117 0 -200 70t-83 169t83 169t200 70q115 0 198.5 -71t83.5 -168q0 -49 -30 -98t-87 -92zM613 300q-13 0 -24 -11t-11 -24t11 -24t24 -11q19 0 31.5 10.5t12.5 24.5t-12.5 24.5t-31.5 10.5zM806 300q-13 0 -24 -11t-11 -24t11 -24t24 -11q19 0 31.5 10.5t12.5 24.5
t-12.5 24.5t-31.5 10.5z" />
    <glyph glyph-name="comments" unicode="&#xe69b;" 
d="M131 107q-32 0 -55 23.5t-23 56.5v640l-27 -27h867q32 0 55 -23.5t23 -56.5v-640l27 27h-473h-8l-6 -5l-225 -151q-9 -6 -11.5 -16.5t3.5 -20t17 -11.5t20 4l225 151l-15 -5h473h26v27v640q0 55 -38.5 94t-92.5 39h-867h-26v-26v-640q0 -56 38.5 -95t92.5 -39h137
q11 0 18.5 8t7.5 19t-7.5 19t-18.5 8h-137zM368 453.5q0 44.5 -31 75.5t-74.5 31t-74 -31t-30.5 -75.5t30.5 -75.5t74 -31t74.5 31t31 75.5zM210 453q0 22 15.5 38t37 16t37 -16t15.5 -38t-15.5 -37.5t-37 -15.5t-37 15.5t-15.5 37.5zM630 453.5q0 44.5 -30.5 75.5t-74 31
t-74.5 -31t-31 -75.5t31 -75.5t74.5 -31t74 31t30.5 75.5zM473 453q0 22 15 38t37 16t37.5 -16t15.5 -38t-15.5 -37.5t-37.5 -15.5t-37 15.5t-15 37.5zM893 453.5q0 44.5 -31 75.5t-74.5 31t-74 -31t-30.5 -75.5t30.5 -75.5t74 -31t74.5 31t31 75.5zM735 453q0 22 15.5 38
t37 16t37 -16t15.5 -38t-15.5 -37.5t-37 -15.5t-37 15.5t-15.5 37.5z" />
    <glyph glyph-name="arrow-top" unicode="&#xe6a5;" 
d="M510 509q12 14 25 0l270 -310q6 -6 15 -7t15.5 5t7 15t-5.5 15l-270 310q-18 20 -44 20.5t-45 -20.5l-280 -309q-6 -7 -6 -16t7 -14.5t15.5 -5.5t14.5 7z" />
    <glyph glyph-name="back" unicode="&#xe613;" 
d="M970 -10q-1 -3 -3 -6.5t-7.5 -4t-11.5 10.5q-2 5 -5.5 14.5t-16 37.5t-27.5 54.5t-40 61t-52 62t-65 53t-78.5 39t-92.5 13.5t-107 -17v-132q-1 -3 -1.5 -8t-5 -15.5t-12 -16t-22 -3.5t-33.5 16l-337 291l-7.5 5t-13 12.5t-10.5 19.5t6 25.5t29 30.5l341 293q2 1 5.5 3.5
t13 5.5t17.5 2t16 -9.5t12 -24.5v-143h1q110 -6 225 -55q240 -103 289 -334q26 -124 -7 -281z" />
    <glyph glyph-name="shouje" unicode="&#xe605;" 
d="M596 386q-8 -31 -29.5 -50.5t-48.5 -19.5q-33 0 -57 29t-24 69h162v0h81q0 67 -47.5 114.5t-115 47.5t-115 -47.5t-47.5 -114.5t47.5 -115t114.5 -48q60 0 105 38.5t55 96.5h-81zM518 513q27 0 48.5 -19.5t29.5 -50.5h-155q7 31 28.5 50.5t48.5 19.5zM409 243
q-45 31 -45 99.5t44.5 134.5t108.5 91t109 -5q47 -32 45 -104q8 87 -46 124q-48 33 -117 4.5t-118.5 -101.5t-50 -147.5t47.5 -106.5q34 -23 79.5 -15.5t89.5 41.5q-39 -26 -77.5 -30t-69.5 15zM753 875h-484q-24 0 -41.5 -18t-17.5 -42v-860q0 -25 17.5 -42.5t41.5 -17.5
h484q25 0 42.5 17.5t17.5 42.5v860q0 24 -17.5 42t-42.5 18zM617 -48h-210v30h210v-30zM749 42h-474v765h474v-765v0z" />
    <glyph glyph-name="fanhui" unicode="&#xe632;" 
d="M623 527h-175v142l-384 -192l384 -192v142h189q225 0 225 -188q0 -195 -232 -195h-442v-100h446q317 0 317 285q0 298 -328 298z" />
    <glyph glyph-name="baidu" unicode="&#xe600;" 
d="M227 266q27 6 45.5 23t25.5 35t9.5 42.5t2 35.5t-2.5 25q-4 34 -36.5 69.5t-75.5 31.5q-62 -6 -84 -95l-5 -24q-4 -21 1.5 -47.5t19 -51t40 -38t60.5 -6.5zM329 66q-9 -27 -3 -47q11 -37 45 -42h51v123h-54q-16 -4 -26 -14.5t-13 -19.5zM406 459q40 0 68 40t28 96.5
t-28 96.5t-68 40t-68 -40t-28 -96.5t28 -96.5t68 -40zM635 450q48 -6 82.5 34t42.5 90q7 42 -20.5 84.5t-66.5 50.5q-35 9 -74.5 -35t-44.5 -86q-5 -55 13 -93.5t68 -44.5zM809 112q-13 10 -33 26.5t-66.5 63t-74.5 87.5q-31 48 -70 68.5t-74 14.5t-63.5 -25t-44.5 -46
q-18 -31 -44.5 -58.5t-47.5 -45.5t-23 -20q-1 -2 -12.5 -10.5t-24.5 -19.5t-29 -29t-26 -38t-15.5 -47t2.5 -56q8 -34 23.5 -59t32 -36t32.5 -17t26 -7t10 0q71 -7 153 11q42 9 76 7t55.5 -6.5t21.5 -5.5q4 -1 11 -3t28 -6.5t41 -6t46.5 0.5t47.5 9t41 24t30 42
q44 102 -15 174zM479 -72h-125q-24 5 -43 17.5t-25.5 21.5t-9.5 15q-17 41 -10 86q7 21 19 37t23 24t23.5 13t17.5 6t7 1v0h67v82l56 -1v-302zM712 -71h-144q-15 4 -27 11t-17.5 14t-9 14t-4 10.5t-0.5 4.5v159l58 1v-143q4 -16 23 -18v0h59v160h62v-213zM916 354
q0 12 -5 28.5t-16.5 36t-34 32.5t-51.5 13q-97 0 -97 -134q0 -20 1.5 -33.5t7.5 -32.5t17 -30.5t32.5 -19.5t51.5 -7q17 0 31 4t23.5 12t17 16.5t11.5 20.5t6.5 21t3.5 22.5t1.5 20t0 18t-0.5 12.5z" />
    <glyph glyph-name="jifeng" unicode="&#xe657;" 
d="M149 619h27v-95h-27v95zM354 496h277v-26h-277v26zM354 272h277v-26h-277v26zM149 419h27v-95h-27v95zM149 220h27v-94h-27v94zM973 731h-922q-21 0 -36 -15t-15 -37v-601q0 -21 15 -36.5t36 -15.5h922q21 0 36 15.5t15 36.5v76h-156q-11 0 -18.5 7.5t-7.5 18.5v1
q0 11 7.5 18.5t18.5 7.5h156v145h-154q-11 0 -18.5 7.5t-7.5 18.5v1q0 11 7.5 18.5t18.5 7.5h154v145h-156q-11 0 -18.5 7.5t-7.5 17.5v2q0 10 7.5 17.5t18.5 7.5h156v77q0 22 -15 37t-36 15zM868 631q-23 0 -39 -16t-16 -39t16.5 -39t38.5 -16h127v-87h-127
q-23 0 -39 -16.5t-16 -39t16.5 -38.5t38.5 -16h127v-88h-127q-23 0 -39 -16t-16 -39t16.5 -39t38.5 -16h127v-45q0 -11 -7.5 -18t-17.5 -7h-916q-10 0 -17.5 7t-7.5 18v595q0 11 7.5 18.5t17.5 7.5h916q10 0 17.5 -7.5t7.5 -18.5v-45h-127z" />
    <glyph glyph-name="fangan" unicode="&#xe60d;" 
d="M848 372q8 0 13.5 6t5.5 14v218q0 31 -21.5 52.5t-52.5 21.5h-562q-31 0 -52.5 -21.5t-21.5 -52.5v-452q0 -31 21.5 -53t52.5 -22h562q31 0 52.5 22t21.5 53v83q0 8 -5.5 13.5t-13.5 5.5t-14 -5.5t-6 -13.5v0v0v0v-79q0 -16 -11.5 -27.5t-27.5 -11.5h-320v0h-234
q-16 0 -27.5 11.5t-11.5 27.5v444q0 16 11.5 27.5t27.5 11.5h554q16 0 27.5 -11.5t11.5 -27.5v-214q0 -8 6 -14t14 -6v0zM345 543q0 4 -3 7t-7 3h-53q-4 0 -7 -3t-3 -7v-53q0 -4 3 -7.5t7 -3.5h53q4 0 7 3.5t3 7.5v53v0zM345 408q0 4 -3 7t-7 3h-53q-4 0 -7 -3t-3 -7v-53
q0 -4 3 -7t7 -3h53q4 0 7 3t3 7v53v0zM335 284h-53q-4 0 -7 -3t-3 -8v-52q0 -5 3 -8t7 -3h53q4 0 7 3t3 8v52q0 5 -3 8t-7 3v0zM466 319l-3 -3v-5l-2 -80l-1 -20l19 7l77 28l4 1l2 3l207 274l9 11l-11 8l-69 53l-11 8l-8 -11zM682 574l69 -52l-3 19l-207 -274l6 4l-77 -27
l18 -14l2 80l-3 -8l213 275zM709 471l16 22l-60 44l-16 -22z" />
    <glyph glyph-name="help" unicode="&#xe611;" 
d="M989 443q0 92 -38 175t-102 143.5t-152 96t-185 35.5t-185 -35.5t-152 -96t-102 -143.5t-38 -174.5t38 -175t102 -143.5t152 -95.5t185 -35.5q61 0 124 15l195 -134l-14 223q80 63 126 153t46 192zM582 166l-35 -34h-79l-25 25v70l15 25h93l31 -30v-56v0zM713 516
q-4 -3 -9.5 -8t-22.5 -20t-32.5 -29.5t-34.5 -33t-32.5 -33t-23 -27.5t-9.5 -20v-32h-91v102l144 131v67q-2 3 -6 8.5t-18 17t-29 17.5t-39.5 2.5t-50.5 -20.5q-5 -4 -13 -12t-24.5 -37t-22.5 -62q-2 -2 -6 -4t-16 -6t-22 -6t-22.5 0t-20.5 9.5t-12 24.5t-1 43q2 5 5.5 13.5
t17 31t30.5 41.5t45 38.5t61 27.5h116q5 -1 13 -4t29.5 -14t39 -24.5t34.5 -36.5t23 -50v-95z" />
    <glyph glyph-name="weiphd" unicode="&#xe602;" horiz-adv-x="1356" 
d="M1227 896h-1099q-51 0 -89.5 -38.5t-38.5 -89.5v-768q0 -51 38.5 -89.5t89.5 -38.5h1099q51 0 89.5 38.5t38.5 89.5v768q0 51 -38.5 89.5t-89.5 38.5zM1310 8q0 -34 -24.5 -58.5t-58.5 -24.5h-1091q-34 0 -58.5 24.5t-24.5 58.5v752q0 34 24.5 58.5t58.5 24.5h1084
q34 0 58.5 -24.5t24.5 -58.5v-752h7zM911 557h-685q-23 0 -23 23v15q0 22 23 22h685q23 0 23 -22v-15q8 -8 -8 -18q-7 -5 -15 -5zM1144 354h-685q-10 0 -16 7.5t-6 14.5v16q0 22 22 22h685q23 0 23 -22v-16q3 -4 1 -9t-9 -9t-15 -4zM911 151h-685q-23 0 -23 22v15
q0 23 23 23h685q23 0 23 -23v-15q3 -4 0.5 -9t-9.5 -9t-14 -4z" />
    <glyph glyph-name="yunfw" unicode="&#xe72c;" 
d="M648 579q0 -14 -10 -24t-24 -10h-204q-14 0 -24 10t-10 24t10 24t24 10h204q14 0 24 -10t10 -24zM614 454h-204q-14 0 -24 -10t-10 -24t10 -24t24 -10h204q14 0 24 10t10 24.5t-10 24t-24 9.5zM966 223q0 -76 -49 -133.5t-122 -68.5v0v0h-565h-1q-73 11 -122 69t-49 133
q0 48 21.5 91.5t59.5 72.5q-1 8 -1 17q0 60 42 103t102 43h3v116q0 34 23.5 57.5t57.5 23.5h292q34 0 57.5 -23.5t23.5 -57.5v-35q53 -39 84 -98t32 -128q51 -25 81 -74.5t30 -107.5zM694 666q0 15 -10.5 25.5t-25.5 10.5h-292q-15 0 -25.5 -10.5t-10.5 -25.5v-554h363v554
h1z" />
    <glyph glyph-name="yanfa" unicode="&#xe71f;" 
d="M887 678h-750q-27 0 -47 -21.5t-20 -51.5v-610q0 -30 20 -51.5t47 -21.5h750q27 0 47 21.5t20 51.5v610q0 30 -20 51.5t-47 21.5v0zM137 634h750q11 0 19 -9t8 -23v-168h-804v168q0 14 8 23t19 9v0zM887 -38h-750q-11 0 -19 8.5t-8 20.5v395h804v-395q0 -12 -8 -20.5
t-19 -8.5v0zM211 533q0 18 12.5 30t30 12t30 -12t12.5 -29.5t-12.5 -30t-30 -12.5t-30 12.5t-12.5 29.5v0zM325 533q0 18 12.5 30t30 12t30 -12t12.5 -29.5t-12.5 -30t-30 -12.5t-30 12.5t-12.5 29.5v0zM439 533q0 18 12.5 30t30 12t30 -12t12.5 -30v0q0 -17 -12.5 -29.5
t-30 -12.5t-30 12.5t-12.5 29.5v0v0zM460 68l38 -1l72 226h-37zM211 177v-16v-17l147 -57v32l-94 41l94 37v33zM683 228v-33l94 -38l-94 -41v-32l147 58v16v17zM683 228z" />
    <glyph glyph-name="jifen" unicode="&#xe61c;" 
d="M706 265h-105q-8 0 -13 -5t-5 -12.5t5 -12.5t13 -5h105q7 0 12 5t5 12.5t-5 12.5t-12 5zM880 370q8 0 13 5t5 12v158q0 14 -10.5 24.5t-24.5 10.5h-700q-14 0 -24.5 -10.5t-10.5 -24.5v-158q0 -7 5.5 -12t12.5 -5q22 0 37 -20.5t15 -49.5t-15 -49.5t-37 -20.5
q-7 0 -12.5 -5t-5.5 -12v-158q0 -14 10.5 -24.5t24.5 -10.5h700q14 0 24.5 10.5t10.5 24.5v158q0 7 -5 12t-13 5q-21 0 -36.5 20.5t-15.5 49.5t15.5 49.5t36.5 20.5zM793 545h70v-35h-70v35zM163 545h595v-35h-595v35zM758 55h-595v35h595v-35zM863 55h-70v35h70v-35z
M863 197v-72h-700v72q31 8 50.5 36.5t19.5 66.5t-19.5 66.5t-50.5 36.5v72h700v-72q-30 -8 -50 -36.5t-20 -66.5t20 -66.5t50 -36.5zM706 370h-105q-8 0 -13 -5t-5 -12.5t5 -12.5t13 -5h105q7 0 12 5t5 12.5t-5 12.5t-12 5zM601 283h70q7 0 12 5t5 12t-5 12t-12 5h-70
q-8 0 -13 -5t-5 -12t5 -12t13 -5zM496 335h-42l-30 60v0q-5 10 -15.5 10t-15.5 -10v0l-31 -60h-41q-7 0 -12.5 -5t-5.5 -13q0 -5 2 -8.5t4 -4.5l2 -1l46 -30l-18 -56l-1 -4q0 -8 5.5 -13t12.5 -5q5 0 9 3l43 29l43 -29q3 -3 10 -3t12 5t5 13l-1 4l-17 56l45 30q8 3 8 14
q0 8 -5 13t-12 5v0z" />
    <glyph glyph-name="b2b" unicode="&#xe692;" 
d="M97 329v116h98q15 0 29 -1.5t25 -8t17 -17.5t6 -30q0 -30 -18 -44.5t-59 -14.5h-98v0zM49 486v-365h176q27 0 48 9t35 23.5t21 33.5t7 39q0 34 -18 57.5t-51 30.5v1q26 10 40 31.5t14 50.5q0 27 -12.5 46t-30.5 30q-8 5 -19.5 7.5t-25 4t-26.5 1.5h-26h-132v0zM97 162
v126h111q16 0 30 -2.5t25 -9.5t18 -19t7 -29q0 -31 -18.5 -48.5t-50.5 -17.5h-122zM382 355h43q0 17 3.5 33t12.5 28.5t22.5 20.5t32.5 8q14 0 26.5 -4.5t22 -13t15.5 -20.5t6 -27q0 -19 -6 -33.5t-17.5 -26.5t-29 -24t-40.5 -27q-19 -11 -36.5 -23.5t-31 -29.5t-22.5 -40
t-12 -55h237v39h-186q3 16 13 29.5t24 24.5t31 21l34 20q17 11 32.5 22.5t28 26.5t20 33t7.5 42q0 26 -9 45.5t-24.5 32.5t-36 20t-44.5 7q-28 0 -50.5 -10t-38 -27t-22.5 -40.5t-5 -51.5v0zM732 329v116h97q16 0 30 -1.5t24.5 -8t17 -17.5t6.5 -30q0 -30 -18.5 -44.5
t-59.5 -14.5h-97v0zM683 486v-365h177q27 0 47.5 9t34.5 23.5t21 33.5t7 39q0 34 -17.5 57.5t-51.5 30.5v1q26 10 40 31.5t14 50.5q0 27 -12.5 46t-30.5 30q-8 5 -19.5 7.5t-25 4t-26.5 1.5h-25h-133v0zM732 162v126h111q15 0 29.5 -2.5t25.5 -9.5t17.5 -19t6.5 -29
q0 -31 -18 -48.5t-51 -17.5h-121z" />
    <glyph glyph-name="e" unicode="&#xe618;" 
d="M364 454q4 9 -0.5 14t-15.5 0q-12 -6 -25 -19.5t-18 -26.5q-4 -8 -5 -15v-18q21 14 36 27q19 16 28 38zM939 307q-7 -10 -20.5 -25t-53.5 -57t-78.5 -76.5t-88 -69t-89.5 -49.5q-39 -13 -73.5 -18.5t-53.5 -5.5t-40 6.5t-24.5 8.5t-14.5 9q-42 25 -61 61q-9 15 -15.5 33
t-8.5 30.5t0 13.5q14 6 37.5 17.5t89 49t123 77.5t124 101t107.5 121q32 48 39 91t-8 74t-47 52.5t-73.5 29t-92 1t-98.5 -29.5q-208 -96 -337 -272q-51 -68 -79.5 -134.5t-37.5 -113.5q-10 -67 -1 -131.5t30 -103.5q22 -39 46 -70t42 -48.5t42 -32t37 -20t36 -13.5
q5 -2 8 -3q102 -38 245 11q90 31 225 160t192 238zM309 322q5 36 23 76q29 62 92.5 128t121.5 96q54 25 77 0.5t3 -69.5q-2 -3 -9 -20t-9.5 -21t-10 -19t-13 -22t-16 -21.5t-21.5 -26t-26.5 -27t-34.5 -31.5q-36 -31 -66.5 -55t-44 -34t-38 -26t-29.5 -20v1q-6 41 1 91z" />
    <glyph glyph-name="biaod" unicode="&#xe65d;" 
d="M898 727h-111q-9 0 -15.5 -6.5t-6.5 -15.5t6.5 -15.5t15.5 -6.5h111v-737h-773v737h113q9 0 15.5 6.5t6.5 15.5t-6.5 15.5t-15.5 6.5h-113q-18 0 -31 -13t-13 -31v-737q0 -18 13 -31t31 -13h773q18 0 31 13t13 31v737q0 18 -13 31t-31 13v0v0zM337 682h348q9 0 15.5 6.5
t6.5 15.5t-6.5 15.5t-15.5 6.5h-67q1 7 1 9q0 44 -31.5 75.5t-76 31.5t-76 -31.5t-31.5 -75.5q0 -2 1 -9h-68q-9 0 -15.5 -6.5t-6.5 -15.5t6.5 -15.5t15.5 -6.5v0v0zM448 735q0 26 18.5 44.5t45 18.5t45 -18.5t18.5 -44.5q0 -1 -1 -9h-125q-1 7 -1 9v0v0zM291 467h441
q9 0 15.5 6.5t6.5 15.5t-6.5 15.5t-15.5 6.5h-441q-9 0 -15.5 -6.5t-6.5 -15.5t6.5 -15.5t15.5 -6.5v0v0zM291 279h441q9 0 15.5 6.5t6.5 15.5t-6.5 15.5t-15.5 6.5h-441q-9 0 -15.5 -6.5t-6.5 -15.5t6.5 -15.5t15.5 -6.5v0v0zM291 91h441q9 0 15.5 6t6.5 15.5t-6.5 15.5
t-15.5 6h-441q-9 0 -15.5 -6t-6.5 -15.5t6.5 -15.5t15.5 -6v0v0z" />
    <glyph glyph-name="shouji" unicode="&#xe61a;" 
d="M826 22q0 -40 -28.5 -68.5t-68.5 -28.5h-434q-40 0 -68.5 28.5t-28.5 68.5v700q0 40 28.5 68.5t68.5 28.5h434q40 0 68.5 -28.5t28.5 -68.5v-700v0zM770 722q0 17 -12 29t-29 12h-434q-17 0 -29 -12t-12 -29v-700q0 -17 12 -29t29 -12h434q17 0 29 12t12 29v700zM798 107
h-573q-6 0 -10 4t-4 10t4 10t10 4h573q5 0 9 -4t4 -10t-4 -10t-9 -4zM798 665h-573q-6 0 -10 4t-4 10t4 10t10 4h573q5 0 9 -4t4 -10t-4 -10t-9 -4zM547 47q0 -10 -7 -17t-18 -7h-7q-10 0 -17 7t-7 17v7q0 11 7 18t17 7h7q11 0 18 -7t7 -18v-7zM575 417q-2 0 -5 1
q-13 5 -8 18l4 11q4 13 17.5 8t8.5 -18l-4 -11q-3 -9 -13 -9zM522 266h-5q-13 5 -8 18l39 113q5 13 18 8.5t9 -17.5l-40 -113q-3 -9 -13 -9zM465 371q-2 0 -4 1q-14 4 -9 17l58 165q5 14 18 9t8 -18l-58 -165q-3 -9 -13 -9zM438 293q-2 0 -5 1q-13 5 -8 18l8 24q5 13 18 8.5
t9 -17.5l-9 -24q-3 -10 -13 -10z" />
    <glyph glyph-name="share" unicode="&#xe71d;" 
d="M697 473h151q28 0 47.5 -19.5t19.5 -47.5v-512l23 23h-719q-28 0 -47.5 19.5t-19.5 46.5v423v40v14v35l-23 -22h36h14h40h135q10 0 16.5 6.5t6.5 16t-6.5 16t-16.5 6.5h-135h-40h-14h-36q-9 0 -15.5 -6.5t-6.5 -16.5v-35v-14v-40v-423q0 -46 32.5 -78.5t79.5 -32.5h719
q9 0 15.5 6.5t6.5 15.5v512q0 46 -33 79t-79 33h-151q-9 0 -15.5 -6.5t-6.5 -16t6.5 -16t15.5 -6.5v0zM348 613l201 224h-34l201 -220q6 -7 15.5 -7.5t16 5.5t7 15.5t-5.5 16.5l-217 238l-218 -242q-6 -7 -5.5 -16t7.5 -15.5t16.5 -6t15.5 7.5v0zM511 818v-704q0 -9 6.5 -16
t15.5 -7t16 7t7 16v704q0 9 -6.5 15.5t-16 6.5t-16 -6.5t-6.5 -15.5v0z" />
    <glyph glyph-name="gex" unicode="&#xe624;" 
d="M758 810h-489q-76 0 -131 -54.5t-55 -128.5v-468q0 -49 27 -90q20 -35 51 -57q12 -9 36 -21q35 -15 72 -15h489q37 0 72 15q32 13 54 36q31 26 45 69q12 36 12 63v471q0 74 -54 127t-129 53zM362 33q11 59 57.5 97t107.5 38q60 0 107 -39t58 -96h-330zM758 33h-15
q-11 79 -73.5 134t-142.5 55q-81 0 -143 -54t-73 -135h-42q-64 0 -108 54q5 15 21 15h63l6 18q12 30 18 39l9 18l-42 39q-16 16 0 33l69 69q17 16 33 0l45 -45l18 9q12 6 42 18l18 6v60q0 9 6 16.5t15 7.5h96q21 0 21 -24v-60l18 -6q21 -5 42 -18l18 -9l39 39q16 16 33 0
l69 -69q16 -17 0 -33l-39 -39l9 -18q15 -30 18 -45l6 -18h57q-47 -57 -111 -57zM887 162q0 -15 -3 -24q-6 3 -24 3h-15q-6 12 -6 18l15 15q22 22 22 52t-22 53l-69 69q-20 20 -52.5 20t-52.5 -20l-15 -12q-12 6 -15 6v24q0 32 -22 53.5t-53 21.5h-96q-31 0 -53 -21.5
t-22 -53.5v-21q-3 -1 -7.5 -3t-7.5 -3l-18 18q-21 21 -54 21v0q-28 0 -54 -21l-69 -69q-22 -22 -22 -52t22 -53l18 -18v-15h-27q-25 0 -45 -15q-3 9 -3 27v468q0 52 40.5 90.5t94.5 38.5h489q54 0 91.5 -37.5t37.5 -91.5zM719 594h-414q-11 0 -19 -8t-8 -19t8 -19t19 -8h414
q11 0 19 8t8 19t-8 19t-19 8zM305 648h312q11 0 19 8t8 19t-8 19t-19 8h-312q-11 0 -19 -8t-8 -19q0 -27 27 -27z" />
    <glyph glyph-name="weihd" unicode="&#xe61f;" 
d="M1009 886q-22 13 -269.5 -97.5t-486.5 -234t-241 -142.5q-2 -13 50 -40t116 -51.5t121.5 -49t63.5 -33.5q6 -8 48.5 -99.5t87.5 -173.5t66 -84q22 -3 142 242.5t222 497.5t80 265zM171 414q73 45 287.5 150t358.5 167l-413 -418q-56 27 -131.5 57t-101.5 44zM570 25
q-10 13 -31 54t-52 105.5t-36 75.5l425 430q-55 -143 -170.5 -394.5t-135.5 -270.5z" />
    <glyph glyph-name="beia" unicode="&#xe663;" 
d="M608 125q-5 0 -8 3l-72 56q-4 5 -3.5 11t3.5 10q7 8 14 8q3 0 6 -1l58 -46l71 82q3 4 8 4q6 0 10 -4q6 -5 7 -13q0 -4 -3 -7l-82 -98q-4 -5 -9 -5zM613 38q-62 0 -106 43.5t-44 105.5t44 105.5t106 43.5t105.5 -43.5t43.5 -105.5t-43.5 -105.5t-105.5 -43.5v0zM613 298
q-46 0 -78.5 -32.5t-32.5 -78.5t32.5 -78.5t78.5 -32.5t78 32.5t32 78.5t-32 78.5t-78 32.5zM234.5 525q-13.5 0 -23 9.5t-9.5 23t9.5 23t23 9.5t23 -9.5t9.5 -23t-9.5 -23t-23 -9.5zM316 530q-8 0 -13.5 8t-5.5 20t5.5 20t13.5 8h320q8 0 13.5 -8t5.5 -20t-5.5 -20
t-13.5 -8h-320zM316 432q-8 0 -13.5 8t-5.5 20t5.5 20t13.5 8h320q8 0 13.5 -8t5.5 -20t-5.5 -20t-13.5 -8h-320zM234.5 428q-13.5 0 -23 9.5t-9.5 23t9.5 23t23 9.5t23 -9.5t9.5 -23t-9.5 -23t-23 -9.5zM221 -63q-64 0 -109.5 45.5t-45.5 109.5v488q0 64 45.5 109.5
t109.5 45.5h491q64 0 109.5 -45.5t45.5 -109.5v-488q0 -64 -45.5 -109.5t-109.5 -45.5h-491zM234 677q-45 0 -77.5 -32t-32.5 -78v-462q0 -46 32.5 -78t77.5 -32h465q45 0 77.5 32t32.5 78v462q0 46 -32.5 78t-77.5 32h-465zM942 82q-13 0 -22 7.5t-9 16.5v570
q-6 45 -30 68.5t-69 30.5l-596 -1q-9 0 -14.5 10t-5.5 18t5.5 18t14.5 10l597 2q64 0 109.5 -45.5t45.5 -109.5v-571q0 -9 -7 -16.5t-19 -7.5z" />
    <glyph glyph-name="pcweb" unicode="&#xe77f;" horiz-adv-x="1027" 
d="M918 753h-803q-22 0 -36.5 -12.5t-14.5 -33.5v-516q0 -17 14 -31.5t31 -14.5h322l-8 -92h-63q-16 0 -28 -16.5t-12 -34.5h382q4 13 -7 32t-27 19h-63l-9 92h322q17 0 31.5 14.5t14.5 31.5v516q0 21 -14 33.5t-32 12.5zM913 277h-792v425h792v-425zM337 552q21 0 36 15.5
t15 36.5t-15 36.5t-36 15.5t-36 -15.5t-15 -36.5t15 -36.5t36 -15.5zM759 484h-217v-150h217v150zM759 633h-217v-17h217v17zM759 598h-217v-17h217v17zM491 484h-216v-18h216v18zM491 449h-216v-17h216v17zM491 420h-216v-17h216v17zM491 386h-216v-17h216v17zM491 352
h-216v-18h216v18z" />
    <glyph glyph-name="flag" unicode="&#xe6c8;" 
d="M1012 197h-500v125h-312v500h437v-125h375l-125 -250zM74.5 -116q-25.5 0 -44 18.5t-18.5 43.5v875q0 26 18.5 44.5t44.5 18.5t44 -18.5t18 -44.5v-875q0 -25 -18.5 -43.5t-44 -18.5z" />
    <glyph glyph-name="gongneng" unicode="&#xe677;" 
d="M20 821v0v0zM380 750q25 0 43 -17.5t18 -42.5v-240q0 -25 -18 -42.5t-43 -17.5h-240q-25 0 -42 17.5t-17 42.5v240q0 25 17 42.5t42 17.5h240zM380 270q25 0 43 -17.5t18 -42.5v-241q0 -25 -18 -42t-43 -17h-240q-25 0 -42 17t-17 42v241q0 25 17 42.5t42 17.5h240z
M862 270q25 0 42 -17.5t17 -42.5v-241q0 -25 -17 -42t-42 -17h-241q-25 0 -42.5 17t-17.5 42v241q0 25 17.5 42.5t42.5 17.5h241zM995 644q19 -19 19 -45t-19 -44l-179 -179q-19 -19 -44.5 -19t-44.5 19l-179 179q-18 18 -18 44t18 45l179 179q19 18 44.5 18t44.5 -18z" />
    <glyph glyph-name="beian" unicode="&#xe695;" 
d="M535 -122q-1 -1 -2 -1q-10 -5 -23 -5q-4 0 -9 1q-7 1 -15 5v0v0q-80 33 -145.5 81t-109 99.5t-76 112.5t-50.5 116t-29 113.5t-14 101.5t-2.5 83.5t2 55.5t2.5 22q2 17 14 29.5t28 15.5q56 11 120 36t118 56t82.5 49t48.5 33q11 9 21 12q13 4 28 0q13 -3 23 -13
q22 -15 50.5 -33t83 -49t118 -55.5t119.5 -35.5q16 -3 28 -15.5t14 -29.5v0q1 -7 2.5 -22t2 -56t-2.5 -83.5t-14 -101t-29.5 -113.5t-51.5 -116t-76.5 -113t-109.5 -99.5t-146 -80.5zM912 632v0q-2 15 -12.5 26.5t-25.5 14.5q-134 25 -329 163q-9 8 -21 12q-13 3 -25 -1
q-10 -3 -18 -10q-18 -13 -44.5 -30t-75.5 -45.5t-106.5 -51.5t-107.5 -33q-14 -3 -24.5 -16t-12.5 -29q-2 -9 -3 -31.5t1 -78.5t11.5 -113t36 -130t66 -135t109 -121.5t159.5 -97.5h1v0q7 -4 13 -5h8q12 0 20 4q1 0 2 1q71 29 129.5 72.5t97.5 90t68.5 101.5t45.5 104.5
t25.5 102t12.5 91t2.5 75.5t-1.5 50t-2 20zM231 513h32v-290h-32v290zM540 323l37 -9q-27 -94 -126 -95q-124 7 -131 143q5 148 134 155q83 -3 118 -84l-37 -9q-26 62 -84 64q-88 -9 -97 -123q6 -112 96 -120q71 3 90 78zM747 340h-90v-117h-32v290h125q88 -5 97 -86
q-2 -85 -100 -87zM741 484h-84v-115h84q70 2 71 60q-3 53 -71 55z" />
    <glyph glyph-name="weiz" unicode="&#xe6fc;" 
d="M880 520q-6 23 -14 43q-29 69 -92 111.5t-141 42.5q-105 0 -179 -74t-74 -179t74 -179t179 -74t179 74t74 179q0 28 -6 56v0zM427 464q0 38 13 73q3 -1 11 -4t11.5 -6.5t3.5 -8.5q0 -20 1 -31.5t4.5 -25.5t12 -21t22.5 -7q2 0 7 -3t13 -10.5t12 -18.5q2 -4 6 -4t12 2
t14 2q3 0 3 -3.5t-1.5 -13.5t-1.5 -20q0 -12 14.5 -28t28.5 -26l14 -11q0 -24 2 -41q-84 1 -143 61.5t-59 144.5v0zM683 264q5 22 7.5 30t8 18.5t13.5 16.5q17 15 8.5 28.5t-24.5 11.5q-7 -1 -9.5 8.5t-8.5 10.5q-7 0 -24 15t-26 19l-13 8.5t-22 8.5q-4 0 -9 -1t-9 -2
t-7.5 -2t-6 0t-2.5 3q0 10 -3 57q0 2 -1 3q0 1 1 0q5 -1 14 -1q5 0 7.5 9.5t7.5 10.5q4 0 20 -3.5t19 -1.5q1 1 6 -7q20 -32 23 -34q8 -7 11 9q1 6 1 17q0 2 -1 9t-1 13t2 9q4 8 10.5 18.5t10 17t7 12.5t5 10t1.5 5t-5.5 1.5t-13.5 0t-14 -2.5q-3 -1 -2.5 -5.5t-3.5 -4.5
q-29 -7 -41 7q-4 6 0 11q2 4 20.5 10t20.5 19q2 17 4 42q54 -8 97.5 -42.5t63.5 -85.5q-83 -60 -29 -107q14 -13 31 -39q-17 -48 -55.5 -82.5t-88.5 -47.5v0zM754 207v-22h-549v557h549v-23q38 -16 69 -41v52q0 43 -33.5 73.5t-80.5 30.5h-458q-48 0 -81.5 -30.5
t-33.5 -73.5v-686q0 -43 33.5 -73.5t81.5 -30.5h458q47 0 80.5 30.5t33.5 73.5v203q-31 -25 -69 -40zM479.5 -8q-28.5 0 -49 19t-20.5 45.5t20.5 45t49 18.5t49 -18.5t20.5 -45t-20.5 -45.5t-49 -19z" />
    <glyph glyph-name="jiant" unicode="&#xe60b;" 
d="M78 346h734l-187 -180q-9 -9 0 -18l37 -37q9 -9 18 0l235 227h1l2 2l36 35q4 4 3 9q1 5 -3 9l-38 37v0l-236 227q-9 9 -18 0l-37 -37q-9 -9 0 -18l185 -178h-732q-5 0 -8.5 -3.5t-3.5 -9.5v-53q0 -5 3.5 -8.5t8.5 -3.5v0z" />
    <glyph glyph-name="liebiao-copy" unicode="&#xe603;" horiz-adv-x="1000" 
d="M327.5 597q-15.5 0 -26.5 -10.5t-11 -26t11 -26.5t26.5 -11t26.5 11t11 26.5t-11 26t-26.5 10.5zM327.5 299q-15.5 0 -26.5 -10.5t-11 -26t11 -26.5t26.5 -11t26.5 11t11 26.5t-11 26t-26.5 10.5zM327.5 448q-15.5 0 -26.5 -10.5t-11 -26t11 -26.5t26.5 -11t26.5 11
t11 26.5t-11 26t-26.5 10.5zM700 299h-223q-16 0 -27 -10.5t-11 -26t11 -26.5t27 -11h223q15 0 26 11t11 26.5t-11 26t-26 10.5zM700 597h-223q-16 0 -27 -10.5t-11 -26t11 -26.5t27 -11h223q15 0 26 11t11 26.5t-11 26t-26 10.5zM812 821h-596q-31 0 -52.5 -22t-21.5 -53
v-670q0 -31 21.5 -52.5t52.5 -21.5h596q31 0 52.5 21.5t21.5 52.5v670q0 31 -21.5 53t-52.5 22zM812 113q0 -15 -11 -26t-26 -11h-522q-15 0 -26 11t-11 26v596q0 15 11 26t26 11h522q15 0 26 -11t11 -26v-596zM700 448h-223q-16 0 -27 -10.5t-11 -26t11 -26.5t27 -11h223
q15 0 26 11t11 26.5t-11 26t-26 10.5z" />
    <glyph glyph-name="case" unicode="&#xe71c;" 
d="M749 288l-46 97q-8 18 -26.5 18t-26.5 -17l-46 -98l-104 -15q-18 -3 -23.5 -21.5t7.5 -31.5l75 -76l-18 -107q-3 -19 12 -31q7 -5 17 -5q7 0 14 3l92 51l92 -51q7 -3 14 -3q10 0 18 5q15 12 11 31l-17 107l74 76q14 13 8.5 31.5t-24.5 20.5zM626 247l10 1l4 9l34 71
q1 2 3 2t2 -2v0v0l34 -71l4 -9l10 -1l75 -12q2 0 3 -3q0 -3 -2 -5l-60 -62l1 -9l13 -78q0 -2 -2 -4v0v0q0 -1 -1 -1t-2 1l-76 41l-75 -41q-1 -1 -2 -1t-1 1v0v0q-2 2 -2 4l13 78l1 10l-6 6l-54 56q-2 2 -1 4q0 3 2 3zM452 59h-125q-3 0 -7 -1h-105q-9 0 -9 7v639q0 6 9 6
h350v-139q0 -19 14 -32.5t33 -13.5h127v-100q0 -12 8.5 -20.5t21 -8.5t21 8.5t8.5 20.5v1v124v28l-170 190h-425q-23 0 -40 -16t-17 -38v-660q0 -22 17 -38t40 -16h249q12 0 21 9t9 21t-9 20.5t-21 8.5v0zM610 706l113 -127h-113v127z" />
    <glyph glyph-name="kef" unicode="&#xe609;" 
d="M371 197q-28 -1 -54.5 -16t-44.5 -34.5t-38.5 -52.5t-30.5 -55t-26.5 -58.5t-21.5 -47.5h266l-25 263q-11 2 -25 1zM421 484q-18 0 -31 -10.5t-13 -25.5t13 -25.5t31 -10.5t30.5 10.5t12.5 25.5t-12.5 25.5t-30.5 10.5zM583 638q28 -38 62 -67.5t54 -40.5l20 -11
q-7 107 -57 152t-156 45q-80 1 -135.5 -36t-74.5 -96t-1 -125v0q169 70 248 130q40 30 40 49zM494 241q-10 0 -17 -6t-7 -13l2 -29q1 -7 9 -11.5t17 -3.5l42 4q10 1 17.5 7t6.5 12l-2 29q0 7 -8 11.5t-18 3.5zM766 356q3 1 16 4t16 4t13 4.5t13 7t10 10t9.5 14l6 18
t4.5 24.5t1 31q0 38 -20.5 68.5t-52.5 44.5q-12 46 -36.5 88.5t-59 77.5t-82 56t-100.5 23h-14q-105 -3 -174.5 -73.5t-78.5 -169.5q-35 -13 -57 -44.5t-21 -70.5q1 -24 4.5 -43t8.5 -32t14.5 -21.5t16.5 -13t21.5 -7t23.5 -3l27 -1.5v229q1 77 67.5 141.5t161.5 64.5
q47 0 87 -17t68.5 -46t47.5 -61t32 -69v-235q-6 -16 -55 -63q-18 -17 -43 -32t-41 -22l-16 -6q-5 -1 -8.5 -7t-2 -11.5t7 -8.5t10.5 -1q62 21 109 66q21 20 37.5 40.5t22 30t6.5 11.5zM661 203q-16 0 -33 -8l-25 -262h266q-5 11 -21.5 47.5t-27.5 60.5t-31 58.5t-38 55
t-42 35t-48 13.5zM557 145h-89q-12 0 -12 -6l15 -206h82l14 206q1 6 -10 6zM647 448q0 15 -13 25.5t-31 10.5t-30.5 -10.5t-12.5 -25.5t12.5 -25.5t30.5 -10.5t31 10.5t13 25.5z" />
    <glyph glyph-name="guanl" unicode="&#xe622;" 
d="M362 477h300v-77h-300v77zM362 605h300v-77h-300v77zM362 349h172v-77h-172v77zM896 226l-26 45q-3 -1 -9.5 -2.5t-23 -1t-30 5.5t-26.5 20t-18 39h-52q-1 -2 -1.5 -5t-4 -12t-8 -15.5t-13 -15.5t-19.5 -12t-26.5 -5.5t-34.5 4.5l-28 -46q3 -2 7.5 -6t13 -16t11 -25.5
t-4.5 -33t-27 -38.5l28 -46q3 1 8.5 3t21 2.5t28.5 -3.5t27 -20t21 -42h53q0 2 1 5t4.5 11.5t8.5 15.5t13 16t19 12t26.5 5.5t34.5 -4.5l26 44q-3 2 -7.5 6.5t-12.5 18t-10.5 27t4.5 33t26 36.5v0zM736 105q-26 0 -44 18t-18 43t18 43t43.5 18t43.5 -18t18 -43t-18 -43
t-43 -18v0zM307 76q-21 0 -36 15t-15 37v512q0 22 15 37t36 15h410q21 0 36 -15t15 -37v-272h64v336q0 27 -18.5 45.5t-45.5 18.5h-512q-27 0 -45.5 -18.5t-18.5 -45.5v-640q0 -27 18.5 -45.5t45.5 -18.5h294v76h-243z" />
    <glyph glyph-name="unie613" unicode="&#xe62c;" 
d="M512 -51q-49 0 -114 34.5t-123 88t-98 126t-40 139.5v376l37 1q8 0 26 1.5t62 10.5t82 24q91 37 146 77l22 16l22 -16q55 -40 146 -77q38 -15 82 -24t62 -10.5t26 -1.5l37 -1v-376q0 -67 -40 -139.5t-98 -126t-123 -88t-114 -34.5v0zM213 641v-304q0 -52 34.5 -110
t82.5 -101.5t98.5 -72.5t83.5 -29t83.5 29t98.5 72.5t82.5 101.5t34.5 110v304q-85 9 -160 39q-75 31 -139 71q-63 -40 -139 -71q-75 -30 -160 -39v0zM492 196l-159 135l49 57l102 -86l194 222l57 -50z" />
    <glyph glyph-name="html5" unicode="&#xe662;" 
d="M77 833l79 -807l354 -90l355 90l79 807h-867zM836 51l-326 -82l-325 82l-73 750h797zM742 634h-469l33 -232h383l-21 -194l-157 -43l-155 43l-21 91q-1 6 -6.5 9.5t-12 2t-10 -7t-1.5 -11.5l25 -109l180 -50l187 50l27 251h-390l-25 169h433q6 0 10.5 4.5t4.5 11t-4.5 11
t-10.5 4.5z" />
    <glyph glyph-name="gongn" unicode="&#xe625;" 
d="M829 774h-627q-23 0 -39.5 -17t-16.5 -41v-626q0 -24 16.5 -41t39.5 -17h627q23 0 39.5 17t16.5 41v626q0 24 -16.5 41t-39.5 17zM851 90q0 -10 -6.5 -17t-15.5 -7h-627q-9 0 -15.5 7t-6.5 17v626q0 10 6.5 17t15.5 7h627q9 0 15.5 -7t6.5 -17v-626zM420 615h-142
q-8 0 -14 -5.5t-6 -13.5v-142q0 -8 6 -13.5t14 -5.5h142q8 0 13.5 5.5t5.5 13.5v142q0 8 -5.5 13.5t-13.5 5.5zM420 333h-142q-8 0 -14 -6t-6 -14v-142q0 -8 6 -13.5t14 -5.5h142q8 0 13.5 5.5t5.5 13.5v142q0 8 -5.5 14t-13.5 6zM731 321h-143q-8 0 -13.5 -5.5t-5.5 -13.5
v-142q0 -8 5.5 -13.5t13.5 -5.5h143q8 0 13.5 5.5t5.5 13.5v142q0 8 -5.5 13.5t-13.5 5.5zM690 639q-6 6 -14 6t-13 -6l-101 -100q-5 -6 -5 -14t5 -14l101 -100q5 -6 13 -6t14 6l101 100q5 6 5 14t-5 14z" />
    <glyph glyph-name="shic" unicode="&#xe651;" 
d="M788 59h-552q-9 0 -14.5 7t-5.5 16.5t5.5 16t14.5 6.5h552q9 0 14.5 -6.5t5.5 -16t-5.5 -16.5t-14.5 -7v0zM576 146h-340q-9 0 -14.5 7t-5.5 16.5t5.5 16t14.5 6.5h340q8 0 14 -6.5t6 -16.5t-6 -16.5t-14 -6.5v0zM881 841h-738q-29 0 -49.5 -20t-20.5 -49v-776
q0 -29 20.5 -49t49.5 -20h738q29 0 49.5 20t20.5 49v776q0 29 -20.5 49t-49.5 20zM867 704v-696h-710v696h710zM216 647v-374h592v374h-592zM371 365q0 -10 -7 -17t-17 -7t-17 7t-7 17v106q0 10 7 17.5t17 7.5t17 -7.5t7 -17.5v-106zM475 365q0 -10 -7 -17t-17 -7t-17 7
t-7 17v35q0 10 7 17.5t17 7.5t17 -7.5t7 -17.5v-35zM582 365q0 -10 -7 -17t-17 -7t-17.5 7t-7.5 17v177q0 10 7.5 17.5t17.5 7.5t17 -7.5t7 -17.5v-177zM689 365q0 -10 -7.5 -17t-17.5 -7t-17 7t-7 17v106q0 10 7 17.5t17 7.5t17.5 -7.5t7.5 -17.5v-106z" />
    <glyph glyph-name="nvren" unicode="&#xe723;" 
d="M615 400q-48 -45 -104 -45t-103 44q-56 -2 -92 23t-48 65.5t-11.5 90.5t14 99t31 90t36.5 65q61 75 137 29q81 71 169 -2q73 -61 109 -178q39 -127 0 -208q-37 -78 -138 -73v0zM633 328q31 1 80 -20t64 -26q63 -143 67 -316q-38 -23 -78 -41l-9 106l-10 -5l-24 -117
q-102 -36 -211 -36t-211 36l-24 117l-10 5l-9 -106q-40 18 -78 41q4 173 67 316q15 5 64 26t80 20q2 -49 38.5 -122.5t82.5 -104.5q43 31 81.5 106.5t39.5 120.5v0zM664 639q-33 -11 -64 -12.5t-59 5.5t-49 15.5t-45 22.5q-11 -19 -36.5 -34.5t-47.5 -14.5q0 -42 12 -80
q21 -71 60 -109t79.5 -37t78.5 40.5t58 110.5q13 45 13 93z" />
    <glyph glyph-name="en" unicode="&#xe79c;" 
d="M875 136h-37v-73q0 -31 -21.5 -52.5t-51.5 -21.5h-623q-30 0 -51.5 21.5t-21.5 52.5v512q0 31 21.5 52.5t51.5 21.5h37v73q0 30 21.5 51.5t51.5 21.5h623q30 0 51.5 -21.5t21.5 -51.5v-513q0 -30 -21.5 -51.5t-51.5 -21.5zM142 612q-15 0 -25.5 -11t-10.5 -26v-512
q0 -16 10.5 -26.5t25.5 -10.5h623q15 0 26 10.5t11 26.5v512q0 15 -11 26t-26 11h-623zM911 722q0 15 -10.5 25.5t-25.5 10.5h-623q-15 0 -25.5 -10.5t-10.5 -25.5v-73h549q30 0 51.5 -21.5t21.5 -52.5v-403h37q15 0 25.5 11t10.5 26v513zM618 319l0.5 3.5t-1.5 9t-5 11
t-11 9.5t-19 4q-15 0 -26 -9t-11 -28v-147h-73v220h146q52 0 68 -41q6 -14 6 -32v-147h-74v147zM216 502h219v-37h-146v-109h110v-37h-110v-110h146v-37h-219v330z" />
    <glyph glyph-name="cn" unicode="&#xe7a0;" 
d="M871 134h-36v-72q0 -30 -21 -51t-51 -21h-613q-30 0 -51 21t-21 51v505q0 29 21 50.5t51 21.5h36v72q0 30 21 51t51 21h613q30 0 51 -21t21 -51v-505q0 -30 -21 -51t-51 -21zM150 603q-15 0 -25.5 -11t-10.5 -25v-505q0 -15 10.5 -25.5t25.5 -10.5h613q15 0 25.5 10.5
t10.5 25.5v505q0 14 -10.5 25t-25.5 11h-613zM907 711q0 15 -10.5 25.5t-25.5 10.5h-613q-15 0 -25.5 -10.5t-10.5 -25.5v-72h541q30 0 51 -21.5t21 -50.5v-397h36q15 0 25.5 10.5t10.5 25.5v505zM582 278h-72v-144h-108v144h-72v-36h-72v216h144v73h108v-73h145v-216h-73
v36zM402 422h-72v-108h72v108zM582 422h-72v-108h72v108z" />
    <glyph glyph-name="sas" unicode="&#xe65e;" 
d="M894 265q0 56 -31 102.5t-81 68.5v4q0 103 -73 176.5t-177 73.5q-95 0 -166 -62q-67 -60 -81 -149q-56 -13 -97 -54q-59 -59 -59 -143.5t59.5 -144t143.5 -59.5h3h2h373h1q76 2 129.5 56.5t53.5 130.5v0zM707 117h-370h-2h-3q-68 0 -116 48.5t-48 116t48 116t116 48.5
t116 -48.5t48 -116.5q0 -8 6 -13.5t14 -5.5t14 5.5t6 13.5q0 85 -59.5 144.5t-144.5 59.5h-6q16 72 74 119t132 47q85 0 146 -59t65 -144q-18 4 -36 4q-8 0 -14 -6t-6 -14t6 -14t14 -6q61 0 104 -43t43 -104t-43 -104.5t-104 -43.5v0z" />
    <glyph glyph-name="img" unicode="&#xe75f;" 
d="M912 176v543q0 37 -26 63t-63 26h-734q-37 0 -63 -26t-26 -63v-543q0 -37 26 -63.5t63 -26.5h734q37 0 63 26.5t26 63.5zM89 749h734q12 0 21 -9t9 -21v-290l-159 191q-9 10 -21 10q-13 1 -22 -8l-253 -236l-85 83q-9 8 -21 8t-20 -8l-213 -204v454q0 12 9 21t21 9z
M59 176v8q4 2 7 5l226 217l85 -83q9 -8 20.5 -8t20.5 8l250 235l182 -218q1 -2 3 -3v-161q0 -13 -9 -21.5t-21 -8.5h-734q-12 0 -21 8.5t-9 21.5zM934 698v-59q13 0 21.5 -9t8.5 -21v-544q0 -12 -8.5 -20.5t-21.5 -8.5h-734q-12 0 -20.5 8.5t-8.5 20.5h-60q0 -36 26 -62.5
t63 -26.5h734q37 0 63 26.5t26 62.5v544q0 37 -26 63t-63 26zM206 556q20 0 34.5 14t14.5 34t-14.5 34t-34.5 14t-34 -14t-14 -34t14 -34t34 -14z" />
    <glyph glyph-name="shangmtg" unicode="&#xe63c;" horiz-adv-x="1025" 
d="M526 213q24 -15 34 -30.5t6 -36.5q-2 -7 11 -16q10 -8 30.5 -22t29.5 -22q25 -18 -1 -34q-7 -4 -19.5 -11.5t-16.5 -9.5q-33 -19 -46.5 -17t-40.5 28q-26 25 -84 67q-5 3 -13.5 3t-13.5 -3q-41 -26 -90 -8q-97 36 -118 134q-9 44 21 77q13 14 25 26q101 96 94 224
q-5 82 33 130q35 45 92 33q90 -19 187 -103q106 -91 154 -195q16 -34 25 -76q10 -47 -29 -78q-41 -33 -91 -36q-90 -6 -137 -11q-6 0 -12 -2t-15 -5.5t-15 -5.5zM730 311q28 -1 41.5 10.5t9.5 31.5q-5 30 -19 57q-48 98 -170 200q-70 59 -134 73q-26 6 -41 -8t-8 -40
q8 -35 23 -61q89 -154 244 -242q9 -5 19 -9t21 -7.5t14 -4.5zM377 575v-34q-2 -10 -5 -38t-7.5 -47t-11.5 -35q-22 -46 5 -93q33 -56 93 -79q34 -13 60 3q20 13 52 18q12 2 116 13q-193 98 -302 292zM512 -128q-104 0 -199 40.5t-163.5 109t-109 163.5t-40.5 199t40.5 199
t109 163.5t163.5 109t199 40.5t199 -40.5t163.5 -109t109 -163.5t40.5 -199t-40.5 -199t-109 -163.5t-163.5 -109t-199 -40.5zM512 866q-98 0 -187 -38.5t-153.5 -103t-103 -153.5t-38.5 -187t38.5 -187t103 -153.5t153.5 -103t187 -38.5t187 38.5t153.5 103t103 153.5
t38.5 187t-38.5 187t-103 153.5t-153.5 103t-187 38.5z" />
    <glyph glyph-name="arrowleft" unicode="&#xe693;" horiz-adv-x="1025" 
d="M708.5 -61q-10.5 0 -17.5 7l-393 393q-19 19 -19 46t19 47v0l408 390q7 7 17 7t17.5 -7.5t7 -17.5t-7.5 -17l-407 -390q-5 -5 -5 -12t5 -11l393 -393q7 -8 7 -18t-7 -17t-17.5 -7z" />
    <glyph glyph-name="arrowright" unicode="&#xe696;" horiz-adv-x="1025" 
d="M318 -61q10 0 17 7l393 393q19 19 19 46t-19 47v0l-408 390q-7 7 -17 7t-17 -7.5t-7 -17.5t7 -17l408 -390q4 -5 4 -12t-5 -11l-393 -393q-7 -8 -7 -18t7.5 -17t17.5 -7z" />
    <glyph glyph-name="diann" unicode="&#xe606;" 
d="M626 51q-7 6 -11 13t-5 11t-1 5l-6 37h-185l-6 -37q-2 -17 -17 -29q-29 -21 -16 -22q14 -2 131 0q118 -2 132 0q13 1 -16 22v0zM266 445h72v-135h-72v135zM419 507h71v-197h-71v197zM562 445h72v-135h-72v135zM696 507h72v-197h-72v197zM462 583l145 -93l201 145l-21 29
l-181 -131l-142 91l-251 -129l17 -32zM923 745h-825q-15 0 -25.5 -10.5t-10.5 -25.5v-520q0 -15 10.5 -25.5t25.5 -10.5h825q15 0 25.5 10.5t10.5 25.5v520q0 15 -10.5 25.5t-25.5 10.5zM905 261h-789v430h789v-430z" />
    <glyph glyph-name="huiygl" unicode="&#xe608;" 
d="M369 143h-256q-22 0 -38 16t-16 38v50q0 27 22 43q12 8 23 14l181 98l17 24l-17 -21q-43 35 -64.5 96t-21.5 111v117q0 60 66 111.5t142 51.5q74 0 139.5 -51.5t65.5 -111.5v-117q0 -13 -2 -31.5t-9 -52.5t-25.5 -67.5t-45.5 -55.5q1 -11 -6.5 -20t-18.5 -10t-19.5 6
t-9.5 17q-1 3 -1 5q0 27 22 44q32 25 46.5 74.5t14.5 90.5v118q0 33 -47 71t-104 38t-106 -38t-49 -71v-118q0 -41 17.5 -90.5t49.5 -74.5q21 -17 21 -43v-6q-3 -30 -31 -44l-181 -98q-20 -10 -34 -27l19 -32h256v0q11 0 18.5 -8t7.5 -19v0v0q0 -11 -7.5 -19t-18.5 -8v0v0z
M771 -73l5 25q1 0 2 1l21 -13q17 -13 40 -11.5t38 15.5l21 21q14 14 15 35t-11 40l-14 23q1 0 1 0.5v1.5l25 6q23 5 37 20.5t14 35.5v30q0 23 -15.5 39t-35.5 19l-24 5q-1 3 -2 4l14 22q12 20 11 40.5t-15 34.5l-21 22q-14 14 -37.5 15t-39.5 -10l-22 -14l-1 1h-1l-5 24
q-4 20 -20 36t-39 16h-30q-19 0 -34.5 -14t-21.5 -37l-6 -24q-1 -1 -5 -3l-21 14q-17 12 -40 11t-38 -15l-21 -22q-14 -14 -15 -34.5t11 -40.5l15 -24q0 -1 -0.5 -1t-0.5 -1l-23 -5q-20 -3 -36 -19t-16 -39v-30q0 -20 14 -35.5t36 -20.5l26 -6l-15 -24q-12 -20 -11 -41
t15 -35l21 -21q14 -14 37.5 -15.5t39.5 10.5l22 14l6 -2l6 -24q5 -23 20.5 -37t35.5 -14h30q22 0 38 15.5t20 35.5zM599 6l-35 -23q-4 -2 -10 -1l-21 20q-1 4 4 11l22 37q4 6 4 13t-3 12q-13 25 -15 53q2 -15 -2 -16.5t-12 1.5l-38 10q-4 1 -9 4v0v30q1 4 9 6l38 8
q16 4 20 19q3 10 9 21q3 6 3 12q0 8 -4 14l-22 37q-3 4 -4 9v1l23 21q4 0 8 -2l35 -23q7 -4 14 -4t13 3q26 14 56 17q-6 1 -10 -0.5t-5 1t-1 3.5t1.5 4.5t1.5 5.5l9 38q1 0 4 9h30q5 -1 6 -9l9 -39q3 -15 19 -20q28 -9 51 -28q-19 12 -20 15q0 1 3 1q8 0 15 4l35 22q3 2 9 2
l21 -21q1 -3 -4 -10l-21 -35q-4 -6 -4 -14q0 -6 3 -12q14 -25 16 -54q1 6 0 9.5t1.5 4.5t3.5 1t4.5 -1.5t5.5 -1.5l38 -8q7 -2 8 -6l1 -29q-2 -3 -10 -5l-40 -10q-15 -4 -19 -18q-9 -28 -27 -50q12 19 14 20q1 0 1 -4q0 -7 4 -13l21 -36q3 -3 4 -8v-1l-23 -22q-5 0 -8 3
l-34 22q-7 4 -15 4q-6 0 -12 -3q-25 -13 -54 -16q6 -1 9.5 0t4.5 -1t1 -3t-1 -5t-1 -5l-9 -40q-1 -7 -5 -8h-29q-4 2 -5 10l-10 39q-4 15 -19 19q-11 4 -24 10q-6 3 -12 3v0q-8 0 -15 -4zM815 143.5q0 48.5 -34.5 83t-83 34.5t-83 -34.5t-34.5 -83t34.5 -83t83 -34.5
t83 34.5t34.5 83zM762 143.5q0 -26.5 -19 -45.5t-45.5 -19t-45.5 19t-19 45.5t19 45t45.5 18.5t45.5 -18.5t19 -45z" />
    <glyph glyph-name="seo" unicode="&#xe60a;" 
d="M1020 -106l-252 252q58 61 90.5 139.5t32.5 165.5q0 90 -35.5 172.5t-95 142t-142 95t-173 35.5t-172.5 -35.5t-141.5 -95t-95 -142t-35.5 -172.5t35.5 -172.5t95 -142t141.5 -95t173 -35.5q86 0 164.5 32t139.5 90l252 -252q4 -4 9 -4t9 3.5t4 9t-4 9.5zM446 32
q-114 0 -210.5 56t-152.5 152.5t-56 210.5t56 210.5t152.5 152.5t210.5 56t210.5 -56t152.5 -152.5t56 -210.5t-56 -210.5t-152.5 -152.5t-210.5 -56zM117 413l29 2q2 -17 10 -28.5t24 -18.5t36 -7q18 0 31.5 5.5t20.5 14.5t7 20t-6.5 19.5t-21.5 13.5q-10 4 -42.5 12
t-45.5 15q-17 9 -25 22t-8 29q0 18 10 33.5t29.5 23.5t43.5 8q26 0 46 -8.5t31 -24.5t12 -37l-30 -3q-3 23 -17 34.5t-41 11.5q-28 0 -41 -10.5t-13 -25.5q0 -12 9 -20.5t47 -17t53 -15.5q20 -9 30 -23.5t10 -33.5t-11 -36t-31 -26t-46 -9q-32 0 -53.5 9.5t-34 28
t-12.5 42.5zM348 337v236h171v-28h-139v-72h130v-28h-130v-80h145v-28h-177zM558 452q0 59 32 92t82 33q32 0 58.5 -15.5t40.5 -43.5t14 -63q0 -36 -15 -64.5t-41.5 -43t-57.5 -14.5q-33 0 -59.5 16t-40 44t-13.5 59v0zM591 452q0 -43 23 -67.5t57 -24.5q36 0 58.5 24.5
t22.5 70.5q0 29 -9.5 50.5t-28.5 33.5t-42 12q-33 0 -57 -23t-24 -76z" />
    <glyph glyph-name="biaoz" unicode="&#xe612;" 
d="M454 587h-213q-11 0 -18.5 7.5t-7.5 18.5t7.5 18t18.5 7h213q11 0 18.5 -7t7.5 -18t-7.5 -18.5t-18.5 -7.5zM783 401h-542q-11 0 -18.5 7.5t-7.5 18t7.5 18t18.5 7.5h542q11 0 18.5 -7.5t7.5 -18t-7.5 -18t-18.5 -7.5zM783 211h-542q-11 0 -18.5 7.5t-7.5 18.5t7.5 18.5
t18.5 7.5h542q11 0 18.5 -7.5t7.5 -18.5t-7.5 -18.5t-18.5 -7.5zM890 843q9 0 15 -6t6 -15v-876q0 -9 -6 -15t-15 -6h-756q-9 0 -15 6t-6 15v876q0 9 6 15t15 6h756zM890 894h-756q-30 0 -51.5 -21t-21.5 -51v-876q0 -30 21.5 -51t51.5 -21h756q30 0 51.5 21t21.5 51v876
q0 30 -21.5 51t-51.5 21z" />
    <glyph glyph-name="zhuj" unicode="&#xe60e;" 
d="M1024 802q0 39 -27.5 66.5t-66.5 27.5h-836q-39 0 -66.5 -27.5t-27.5 -66.5v-204v0q0 -31 19 -56q-19 -25 -19 -56v-204v0q0 -31 19 -56q-19 -24 -19 -56v0v-204q0 -39 27.5 -66.5t66.5 -27.5h836q39 0 66.5 27.5t27.5 66.5v204v0q0 32 -19 56q19 25 19 56v204v0
q0 31 -19 56q19 25 19 55v205zM947 595q0 -6 -5 -10.5t-12 -4.5h-836q-7 0 -12.5 5t-5.5 13v204q0 7 5.5 12.5t12.5 5.5h836q7 0 12 -5.5t5 -12.5v-204v-3zM76 486q0 7 5.5 12.5t12.5 5.5h836q7 0 12 -5.5t5 -12.5v-204v-2q0 -7 -5 -11.5t-12 -4.5h-836q-7 0 -12.5 5.5
t-5.5 12.5v204v0zM76 170q0 8 5.5 13t12.5 5h836q7 0 12 -5t5 -13v-204v-2q0 -7 -5 -11.5t-12 -4.5h-836q-7 0 -12.5 5.5t-5.5 12.5v204v0zM837 743h-243q-17 0 -29 -12t-12 -29t12 -29t29 -12h243q17 0 29 12t12 29t-12 29t-29 12zM594 343h243q17 0 29 12t12 29t-12 29
t-29 12h-243q-17 0 -29 -12t-12 -29t12 -29t29 -12zM594 25h243q17 0 29 12t12 29t-12 29t-29 12h-243q-17 0 -29 -12t-12 -29t12 -29t29 -12zM158 702q0 -19 13.5 -32.5t32.5 -13.5t32.5 13.5t13.5 32.5t-13.5 32.5t-32.5 13.5t-32.5 -13.5t-13.5 -32.5zM311 702v0
q0 -19 13.5 -32.5t33 -13.5t33 13.5t13.5 32.5v0q0 19 -13.5 32.5t-33 13.5t-33 -13.5t-13.5 -32.5zM158 390q0 -19 13.5 -32.5t32.5 -13.5t32.5 13.5t13.5 32.5t-13.5 32.5t-32.5 13.5t-32.5 -13.5t-13.5 -32.5zM311 390v0q0 -19 13.5 -32.5t33 -13.5t33 13.5t13.5 32.5v0
q0 19 -13.5 32.5t-33 13.5t-33 -13.5t-13.5 -32.5zM158 72q0 -19 13.5 -32.5t32.5 -13.5t32.5 13.5t13.5 32.5t-13.5 32.5t-32.5 13.5t-32.5 -13.5t-13.5 -32.5zM311 72v0q0 -19 13.5 -32.5t33 -13.5t33 13.5t13.5 32.5v0q0 19 -13.5 32.5t-33 13.5t-33 -13.5t-13.5 -32.5z
" />
    <glyph glyph-name="zhif" unicode="&#xe6c0;" 
d="M206 183h612q35 0 59 24.5t24 59.5v389q0 35 -24 59.5t-59 24.5h-612q-35 0 -59 -24.5t-24 -59.5v-389q0 -35 24 -59.5t59 -24.5zM178 656q0 12 8 20t20 8h612q12 0 20 -8t8 -20v-389q0 -12 -8 -20t-20 -8h-612q-12 0 -20 8t-8 20v389zM929 84h-834q-12 0 -20 -8
t-8 -19.5t8 -20t20 -8.5h834q12 0 20 8.5t8 20t-8 19.5t-20 8zM441 447q-12 0 -20 -8.5t-8 -20t8 -19.5t20 -8h43v-38q0 -12 8 -20t20 -8t20 8t8 20v38h43q12 0 20 8t8 19.5t-8 20t-20 8.5h-43v19h43q12 0 20 8t8 19.5t-8 19.5t-20 8h-18l29 29q8 8 8 19.5t-8 20t-19.5 8.5
t-19.5 -8l-44 -44l-43 44q-9 8 -20.5 8t-19.5 -8t-8 -19.5t8 -19.5l30 -30h-17q-12 0 -20 -8t-8 -19.5t8 -19.5t20 -8h43v-19h-43z" />
    <glyph glyph-name="pc" unicode="&#xe683;" 
d="M672 384h-320q-14 0 -23 -9t-9 -22v-1q0 -13 9 -22.5t23 -9.5h320q13 0 22.5 9.5t9.5 22.5v1q0 13 -9.5 22t-22.5 9zM480 161v-129q0 -13 9 -22.5t22 -9.5h1q13 0 22.5 9.5t9.5 22.5v129q0 13 -9.5 22t-22.5 9h-1q-13 0 -22 -9t-9 -22zM672 64h-320q-14 0 -23 -9t-9 -22
v-1q0 -13 9 -22.5t23 -9.5h320q13 0 22.5 9.5t9.5 22.5v1q0 13 -9.5 22t-22.5 9zM736 576h-448q-14 0 -23 -9t-9 -23v0q0 -13 9 -22.5t23 -9.5h448q13 0 22.5 9.5t9.5 22.5v0q0 14 -9.5 23t-22.5 9zM895 768h-767q-27 0 -45.5 -18.5t-18.5 -45.5v-512q0 -26 18.5 -45
t45.5 -19h767q27 0 45.5 19t18.5 45v512q0 27 -18.5 45.5t-45.5 18.5zM895 640v-448v32q0 -13 -9 -22.5t-22 -9.5h-704q-13 0 -22.5 9.5t-9.5 22.5v-32v480q0 13 9.5 22.5t22.5 9.5h704q13 0 22 -9.5t9 -22.5v-32z" />
    <glyph glyph-name="liul" unicode="&#xe680;" horiz-adv-x="1066" 
d="M1038 -125h-1010q-8 0 -15 7t-7 15v974q0 8 7 15t15 7t15 -7t7 -15v-951h966v390q0 8 7 15t15 7t15 -7t7 -15v-413q0 -8 -7 -15t-15 -7zM1018 753q-17 31 -47 39q-32 11 -63 -5.5t-41 -50.5q-6 -21 -0.5 -42.5t20.5 -35.5l-340 -449l-140 249q-6 12 -20 12q-12 0 -19 -12
l-144 -241q-5 3 -22 3q-34 0 -57.5 -24t-23.5 -57.5t23.5 -57.5t57.5 -24t57.5 24t23.5 57.5t-22 56.5l123 204l141 -244q5 -11 16 -11h3q13 0 17 9l365 479q8 -3 22 -3q23 0 40 9q30 17 39 48q10 35 -9 67zM205 102q-15 0 -26 11t-11 25.5t11 25.5t26 11t25.5 -11
t10.5 -25.5t-10.5 -25.5t-25.5 -11zM982 702q-5 -14 -17 -22t-28 -3q-15 4 -22 18.5t-3 29.5q9 28 36 28q9 0 11 -3q15 -5 23 -17q4 -17 0 -31z" />
    <glyph glyph-name="kongj" unicode="&#xe62b;" 
d="M928 128v316h-384v196h96v256h-256v-256h96v-196h-384v-316h-96v-256h256v256h-96v252h320v-252h-96v-256h256v256h-96v252h320v-252h-96v-256h256v256h-96z" />
    <glyph glyph-name="peiz" unicode="&#xe60f;" 
d="M792 338l27 27l-48 48l-27 -27q-23 18 -61 24v37h-69v-37q-20 -4 -61 -24l-27 27l-48 -48l27 -27q-20 -33 -24 -61h-37v-69h37q4 -20 24 -61l-27 -24l48 -48l27 28q23 -19 61 -24v-38h69v34q20 4 61 24l27 -27l48 48l-27 27q20 33 24 61h37v69h-37q-4 28 -24 61zM648 140
q-40 0 -71 31t-31 71q0 43 30.5 73t71.5 30q44 0 73.5 -29.5t29.5 -73.5q0 -41 -30 -71.5t-73 -30.5zM444 659l-34 68h-239v-682h273v68h-205v409h546v-68h68v205h-409z" />
    <glyph glyph-name="yum" unicode="&#xe610;" 
d="M212 396l-29 94h-55l-29 -94l-32 94h-62l72 -207h42l37 116l36 -116h42l72 207h-62zM568 394l-28 93h-56l-29 -93l-32 93h-62l72 -206h43l36 115l36 -115h43l72 206h-62zM957 485l-32 -94l-29 94h-55l-29 -94l-32 94h-62l72 -207h42l36 116l37 -116h42l72 207h-62z
M124 543q9 22 21 42q39 -8 84 -14l-8 -28h77q4 11 7 20q74 -7 151 -7q119 0 240 16q6 -14 12 -29h78q-6 20 -14 40q49 8 98 19q17 -28 30 -59h79q-51 147 -179 240.5t-288 93.5t-288 -93.5t-179 -240.5h79zM820 667q-40 -8 -81 -14q-34 62 -82 124q94 -35 163 -110zM543 796
q71 -76 116 -154q-58 -6 -116 -9v163zM460 800q1 0 4 0.5t5 0.5v-170q-67 0 -133 4q49 96 124 165zM325 759q-41 -56 -68 -116q-35 4 -66 9q56 68 134 107zM903 234q-12 -31 -28 -59q-40 9 -88 16q7 21 12 43h-76q-6 -18 -12 -34q-187 18 -383 -5q-9 19 -16 39h-79
q9 -26 19 -50q-49 -7 -98 -18q-20 33 -33 68h-79q49 -151 178 -247t292 -96t292 96t178 247h-79v0zM204 101q40 7 82 13q34 -62 83 -124q-96 35 -165 111zM469 -13q-61 68 -103 137q51 5 103 7v-144v0zM552 -32l1 -1l-10 -1v167q69 0 135 -5q-24 -45 -57 -86t-47 -54.5
t-22 -19.5zM686 3q42 55 72 117q36 -5 69 -11q-59 -69 -141 -106z" />
    <glyph glyph-name="mianf" unicode="&#xe626;" 
d="M944 -34h-865q-33 0 -56 23t-23 55v389q0 32 23 54.5t56 22.5h189l198 197q-13 16 -14 37q0 24 17 41t42.5 17t42 -17t16.5 -42q0 -19 -13 -36l198 -197h189q33 0 56 -22.5t23 -54.5v-389q0 -32 -23 -55t-56 -23zM521 687q-2 0 -5.5 -1t-4.5 -1q-7 0 -9 2l-179 -177h377z
M964 392v41q0 8 -5.5 13.5t-14.5 5.5h-865q-9 0 -14.5 -5.5t-5.5 -13.5v-389q0 -9 5.5 -14.5t14.5 -5.5h865q9 0 14.5 5.5t5.5 14.5v348zM708 337h134v-39h-85v-38h79v-35h-79v-39h85v-39h-134v190zM533 337h134v-39h-85v-38h79v-35h-79v-39h85v-39h-134v190zM447 145
l-34 68h-25v-68h-50v192h83q37 0 56 -16.5t19 -47.5q0 -39 -34 -54l40 -74h-55zM415 300h-29v-54h29q14 0 22 7t8 20q0 12 -8.5 19.5t-21.5 7.5zM218 254h77v-37h-75v-72h-49v192h132v-39h-83v-44h-2z" />
    <glyph glyph-name="kesh" unicode="&#xe63d;" 
d="M143 241h62v-246h-62v246zM317 364h62v-369h-62v369zM492 241h61v-246h-61v246zM666 333h61v-338h-61v338zM143 640h410v-61h-410v61zM641 613q0 -15 10.5 -25.5t25.5 -10.5t25.5 10.5t10.5 25.5v0q0 15 -10.5 25.5t-25.5 10.5t-25.5 -10.5t-10.5 -25.5v0zM0 517h819v-51
h-819v51zM775 742h-680v0q-39 0 -67 -27.5t-28 -67.5v0v-680v0q0 -39 28 -67t67 -28v0h680v0q40 0 67.5 28t27.5 67v0v680v0q0 40 -27.5 67.5t-67.5 27.5v0zM819 -33q0 -18 -13 -31t-31 -13h-680q-18 0 -31 13t-13 31v680q0 18 13 31t31 13h680v0q18 0 31 -13t13 -31v-680z
M929 896h-680v0q-40 0 -67.5 -28t-27.5 -67v0v-59h51v59q0 18 13 31t31 13h680q18 0 31 -13t13 -31v-680q0 -18 -13 -31t-31 -13h-59v-51h59v0q39 0 67 27.5t28 67.5v0v680v0q0 39 -28 67t-67 28v0z" />
    <glyph glyph-name="weicj" unicode="&#xe655;" 
d="M460 554l-147 -147h263l146 147h-262zM893 554h-79l-147 -147h317v56q0 38 -27 64.5t-64 26.5zM987 873q-7 23 -31 23q-5 0 -10 -2l-873 -276q-23 -8 -23 -31q0 -14 9.5 -23.5t23.5 -9.5q5 0 10 2l873 277q23 7 23 31q0 5 -2 10v-1zM364 552h-238q-37 0 -64 -26.5
t-27 -64.5v-55h185q3 6 7 9zM35 -37q0 -38 27 -64.5t64 -26.5h763q37 0 64 26.5t27 64.5v378h-945v-378z" />
    <glyph glyph-name="anq" unicode="&#xe64e;" 
d="M878 698q-18 3 -27 5q-39 9 -79 20q-19 6 -73.5 19.5t-93 27t-83.5 35.5q-10 5 -19 0q-45 -22 -83.5 -35.5t-93.5 -27t-74 -19.5q-34 -10 -78 -20q-11 -2 -28 -5q-7 -1 -12.5 -7t-5.5 -14v-251q0 -208 175 -345q66 -50 137 -88q22 -12 59 -28l4 -2q8 -4 17 0q3 1 9 3.5
t9 3.5q19 9 45 23q71 37 138 88q175 135 175 345v251q0 8 -5 14t-13 7zM855 426q0 -188 -160 -311q-61 -47 -131 -85q-34 -17 -51 -25q-2 1 -4.5 2t-3.5 2q-27 13 -43 21q-70 38 -132 85q-158 123 -158 311v233q3 1 11 3q42 9 82 20q22 7 74 19.5t91 25.5t83 35
q45 -22 83.5 -35t90.5 -25.5t74 -19.5q46 -13 94 -23v-233zM693 407h-158v156q0 9 -6.5 16t-15.5 7h-1q-9 0 -16 -6.5t-7 -16.5v-156h-158q-9 0 -15.5 -7t-6.5 -16t6.5 -16t15.5 -7h158v-156q0 -9 6.5 -16t16.5 -7q9 0 16 6.5t7 16.5v156h158q9 0 15.5 7t6.5 16t-6.5 16
t-15.5 7z" />
    <glyph glyph-name="kesh2" unicode="&#xe69a;" 
d="M0 270h656v542h-656v-542v0zM696 498h328v-228h-328v228zM696 812h328v-271h-328v271zM696 227h328v-271h-328v271zM367 227h289v-271h-289v271zM0 227h328v-271h-328v271z" />
    <glyph glyph-name="search" unicode="&#xe64f;" 
d="M1010 -40v0v0v0q14 -16 14 -35q0 -22 -15 -38q-15 -15 -37 -15h-1v0q-9 0 -18 3q-12 4 -21 14v-1l-282 285q-102 -72 -228 -72q-12 0 -25 1q-25 2 -49 8q-36 3 -79.5 21.5t-82.5 48.5q-24 15 -53 47.5t-53 73.5q-41 68 -49 150l1 -12q-4 16 -4 56v-7v10q0 36 6 70
q15 93 72 168q14 27 55 61t91 57l-13 -4q15 10 56 24q60 22 127 22v0q28 0 53 -3q67 -10 129 -42q101 -52 157 -149l-3 9q14 -16 35 -74q29 -77 25 -156q-4 -131 -90 -236l283 -285h-1v0zM759 482v17q0 64 -24 123q-27 72 -85 124l14 -12q-10 10 -27 24q-65 55 -149 72
q-29 5 1 0q-33 5 -65 5q-20 0 -40 -2q-4 0 -9 -1l-6 -1q-91 -15 -161 -73q-26 -17 -54.5 -57t-44.5 -87q-1 4 -5 -5q-13 -33 -16 -95q-4 -85 31 -159q44 -96 134 -147q0 -4 17 -12.5t47.5 -18t61.5 -13.5q1 -2 15 -3t38 0t48 5q62 11 115 43q10 2 37.5 25t51.5 51l-3 -5
q14 12 41 63l10 20l-20 -37q5 9 11 21v0q35 67 36 145v-10z" />
    <glyph glyph-name="xcx" unicode="&#xe627;" 
d="M365 342q-1 -1 -6 -3q-187 -89 -75 -198q23 -23 54.5 -30t60 1t52 26t32.5 41q4 43 4 405q0 10 7.5 28.5t23.5 42t38 46t53.5 39.5t67.5 25t82 -1t94 -36q6 -3 15 -9.5t30.5 -27.5t36 -44t22 -60t-1.5 -75t-45 -88.5t-99 -101.5h-3.5h-9.5t-13.5 1t-15.5 3t-15.5 6
t-13.5 10t-9.5 14.5t-4 20t3.5 25.5q-1 7 12 19.5t31 28.5t35.5 34t27.5 42t5 47q-10 36 -42 59.5t-68.5 27t-72 -17.5t-50.5 -65v-396q1 -24 -19.5 -59.5t-62 -70.5t-105 -46t-149.5 15l-16 8t-36 25t-45 44t-34 64.5t-12 86.5q5 56 51 114.5t104 80.5q31 8 54.5 -0.5
t33.5 -26.5t8.5 -39t-15.5 -35z" />
  </font>
</defs>
</svg>
